<svg width="34" height="34" viewBox="0 0 34 34" fill="none" xmlns="http://www.w3.org/2000/svg">
<g filter="url(#filter0_d_13_131)">
<path d="M14.75 16.1875H18.5C18.5166 16.1875 18.5322 16.1943 18.5439 16.2061C18.5557 16.2178 18.5625 16.2334 18.5625 16.25C18.5625 16.2666 18.5557 16.2822 18.5439 16.2939C18.5322 16.3057 18.5166 16.3125 18.5 16.3125H14.75C14.7334 16.3125 14.7178 16.3057 14.7061 16.2939C14.6943 16.2822 14.6875 16.2666 14.6875 16.25C14.6875 16.2334 14.6943 16.2178 14.7061 16.2061C14.7178 16.1943 14.7334 16.1875 14.75 16.1875ZM14.75 13.9375H20C20.0166 13.9375 20.0322 13.9443 20.0439 13.9561C20.0557 13.9678 20.0625 13.9834 20.0625 14C20.0625 14.0166 20.0557 14.0322 20.0439 14.0439C20.0322 14.0557 20.0166 14.0625 20 14.0625H14.75C14.7334 14.0625 14.7178 14.0557 14.7061 14.0439C14.6943 14.0322 14.6875 14.0166 14.6875 14C14.6875 13.9834 14.6943 13.9678 14.7061 13.9561C14.7178 13.9443 14.7334 13.9375 14.75 13.9375Z" fill="#4B5563" stroke="#4B5563"/>
<path fill-rule="evenodd" clip-rule="evenodd" d="M14.375 10.4375C13.4302 10.4375 12.524 10.8128 11.8559 11.4809C11.1878 12.149 10.8125 13.0552 10.8125 14V21.5C10.8125 22.2459 11.1088 22.9613 11.6363 23.4887C12.1637 24.0162 12.8791 24.3125 13.625 24.3125H21.875C22.2231 24.3125 22.5569 24.1742 22.8031 23.9281C23.0492 23.6819 23.1875 23.3481 23.1875 23V11.75C23.1875 11.4019 23.0492 11.0681 22.8031 10.8219C22.5569 10.5758 22.2231 10.4375 21.875 10.4375H14.375ZM22.0625 18.6875V11.75C22.0625 11.7003 22.0427 11.6526 22.0076 11.6174C21.9724 11.5823 21.9247 11.5625 21.875 11.5625H14.375C13.7285 11.5625 13.1085 11.8193 12.6514 12.2764C12.1943 12.7335 11.9375 13.3535 11.9375 14V19.25C12.4238 18.8839 13.0163 18.6864 13.625 18.6875H22.0625ZM22.0625 19.8125H13.625C13.1774 19.8125 12.7482 19.9903 12.4318 20.3068C12.1153 20.6232 11.9375 21.0524 11.9375 21.5C11.9375 21.9476 12.1153 22.3768 12.4318 22.6932C12.7482 23.0097 13.1774 23.1875 13.625 23.1875H21.875C21.9247 23.1875 21.9724 23.1677 22.0076 23.1326C22.0427 23.0974 22.0625 23.0497 22.0625 23V19.8125Z" fill="#4B5563"/>
<path d="M22.6875 11.75C22.6875 11.5345 22.6016 11.3282 22.4492 11.1758C22.2968 11.0234 22.0905 10.9375 21.875 10.9375H14.375C13.5628 10.9375 12.7843 11.2606 12.21 11.835C11.6356 12.4093 11.3125 13.1878 11.3125 14V21.5C11.3125 22.1133 11.5566 22.7011 11.9902 23.1348C12.4239 23.5684 13.0117 23.8125 13.625 23.8125H21.875C22.0905 23.8125 22.2968 23.7266 22.4492 23.5742C22.6016 23.4218 22.6875 23.2155 22.6875 23V11.75ZM22.5625 23C22.5625 23.1823 22.4903 23.3574 22.3613 23.4863C22.2324 23.6153 22.0573 23.6875 21.875 23.6875H13.625C13.0448 23.6875 12.4884 23.4571 12.0781 23.0469C11.6679 22.6366 11.4375 22.0802 11.4375 21.5C11.4375 20.9198 11.6679 20.3634 12.0781 19.9531C12.4884 19.5429 13.0448 19.3125 13.625 19.3125H22.5625V23ZM12.4375 21.5C12.4375 21.8149 12.5625 22.1171 12.7852 22.3398C13.0079 22.5625 13.3101 22.6875 13.625 22.6875H21.5625V20.3125H13.625C13.3101 20.3125 13.0079 20.4375 12.7852 20.6602C12.5625 20.8829 12.4375 21.1851 12.4375 21.5ZM12.4375 18.4092C12.8143 18.2643 13.2161 18.1869 13.625 18.1875H21.5625V12.0625H14.375C13.8611 12.0625 13.3682 12.2665 13.0049 12.6299C12.6415 12.9932 12.4375 13.4861 12.4375 14V18.4092ZM22.5625 19.1875H13.624C13.1242 19.1866 12.6376 19.3488 12.2383 19.6494L11.4375 20.252V14C11.4375 13.2209 11.747 12.4737 12.2979 11.9229C12.8487 11.372 13.5959 11.0625 14.375 11.0625H21.875C22.0118 11.0625 22.1447 11.1029 22.2568 11.1777L22.3613 11.2637L22.4473 11.3682C22.5221 11.4803 22.5625 11.6132 22.5625 11.75V19.1875ZM23.6875 23C23.6875 23.4807 23.4962 23.9413 23.1562 24.2812C22.8163 24.6212 22.3557 24.8125 21.875 24.8125H13.625C12.7465 24.8125 11.9034 24.464 11.2822 23.8428C10.661 23.2216 10.3125 22.3785 10.3125 21.5V14C10.3125 12.9226 10.7401 11.8888 11.502 11.127C12.2638 10.3651 13.2976 9.9375 14.375 9.9375H21.875C22.3557 9.9375 22.8163 10.1288 23.1562 10.4688C23.4962 10.8087 23.6875 11.2693 23.6875 11.75V23Z" fill="#4B5563"/>
</g>
<defs>
<filter id="filter0_d_13_131" x="-2" y="-1" width="38" height="38" filterUnits="userSpaceOnUse" color-interpolation-filters="sRGB">
<feFlood flood-opacity="0" result="BackgroundImageFix"/>
<feColorMatrix in="SourceAlpha" type="matrix" values="0 0 0 0 0 0 0 0 0 0 0 0 0 0 0 0 0 0 127 0" result="hardAlpha"/>
<feOffset dy="1"/>
<feGaussianBlur stdDeviation="1"/>
<feColorMatrix type="matrix" values="0 0 0 0 0 0 0 0 0 0 0 0 0 0 0 0 0 0 0.05 0"/>
<feBlend mode="normal" in2="BackgroundImageFix" result="effect1_dropShadow_13_131"/>
<feBlend mode="normal" in="SourceGraphic" in2="effect1_dropShadow_13_131" result="shape"/>
</filter>
</defs>
</svg>
