<svg width="44" height="44" viewBox="0 0 44 44" fill="none" xmlns="http://www.w3.org/2000/svg">
<path d="M25 31V23C25 22.7348 24.8946 22.4804 24.7071 22.2929C24.5196 22.1054 24.2652 22 24 22H20C19.7348 22 19.4804 22.1054 19.2929 22.2929C19.1054 22.4804 19 22.7348 19 23V31" stroke="#9CA3AF" stroke-width="2" stroke-linecap="round" stroke-linejoin="round"/>
<path d="M13 20C12.9999 19.7091 13.0633 19.4217 13.1858 19.1577C13.3082 18.8938 13.4868 18.6598 13.709 18.472L20.709 12.473C21.07 12.1679 21.5274 12.0005 22 12.0005C22.4726 12.0005 22.93 12.1679 23.291 12.473L30.291 18.472C30.5132 18.6598 30.6918 18.8938 30.8142 19.1577C30.9367 19.4217 31.0001 19.7091 31 20V29C31 29.5305 30.7893 30.0392 30.4142 30.4142C30.0391 30.7893 29.5304 31 29 31H15C14.4696 31 13.9609 30.7893 13.5858 30.4142C13.2107 30.0392 13 29.5305 13 29V20Z" stroke="#9CA3AF" stroke-width="2" stroke-linecap="round" stroke-linejoin="round"/>
</svg>
