<svg width="44" height="44" viewBox="0 0 44 44" fill="none" xmlns="http://www.w3.org/2000/svg">
<rect width="44" height="44" rx="12" fill="#2B3139"/>
<path d="M19.937 25.5C19.8477 25.1539 19.6673 24.8381 19.4146 24.5854C19.1619 24.3327 18.8461 24.1523 18.5 24.063L12.365 22.481C12.2603 22.4513 12.1682 22.3883 12.1026 22.3014C12.037 22.2146 12.0015 22.1088 12.0015 22C12.0015 21.8912 12.037 21.7854 12.1026 21.6986C12.1682 21.6118 12.2603 21.5487 12.365 21.519L18.5 19.936C18.846 19.8468 19.1617 19.6666 19.4144 19.414C19.6671 19.1615 19.8476 18.8459 19.937 18.5L21.519 12.365C21.5484 12.2599 21.6114 12.1673 21.6983 12.1014C21.7853 12.0355 21.8914 11.9998 22.0005 11.9998C22.1096 11.9998 22.2157 12.0355 22.3027 12.1014C22.3896 12.1673 22.4526 12.2599 22.482 12.365L24.063 18.5C24.1523 18.8461 24.3327 19.1619 24.5854 19.4146C24.8381 19.6673 25.1539 19.8477 25.5 19.937L31.635 21.518C31.7405 21.5471 31.8335 21.61 31.8998 21.6971C31.9661 21.7841 32.0021 21.8906 32.0021 22C32.0021 22.1094 31.9661 22.2159 31.8998 22.3029C31.8335 22.39 31.7405 22.4529 31.635 22.482L25.5 24.063C25.1539 24.1523 24.8381 24.3327 24.5854 24.5854C24.3327 24.8381 24.1523 25.1539 24.063 25.5L22.481 31.635C22.4516 31.7401 22.3886 31.8327 22.3017 31.8986C22.2147 31.9646 22.1086 32.0003 21.9995 32.0003C21.8904 32.0003 21.7843 31.9646 21.6973 31.8986C21.6104 31.8327 21.5474 31.7401 21.518 31.635L19.937 25.5Z" stroke="white" stroke-width="2" stroke-linecap="round" stroke-linejoin="round"/>
<path d="M30 13V17" stroke="white" stroke-width="2" stroke-linecap="round" stroke-linejoin="round"/>
<path d="M32 15H28" stroke="white" stroke-width="2" stroke-linecap="round" stroke-linejoin="round"/>
<path d="M14 27V29" stroke="white" stroke-width="2" stroke-linecap="round" stroke-linejoin="round"/>
<path d="M15 28H13" stroke="white" stroke-width="2" stroke-linecap="round" stroke-linejoin="round"/>
</svg>
