<svg width="34" height="34" viewBox="0 0 34 34" fill="none" xmlns="http://www.w3.org/2000/svg">
<g filter="url(#filter0_d_13_117)">
<path d="M20 10.25C19.6022 10.25 19.2206 10.408 18.9393 10.6893C18.658 10.9706 18.5 11.3522 18.5 11.75V16.25C18.5 16.6478 18.658 17.0294 18.9393 17.3107C19.2206 17.592 19.6022 17.75 20 17.75C20.1989 17.75 20.3897 17.829 20.5303 17.9697C20.671 18.1103 20.75 18.3011 20.75 18.5V19.25C20.75 19.6478 20.592 20.0294 20.3107 20.3107C20.0294 20.592 19.6478 20.75 19.25 20.75C19.0511 20.75 18.8603 20.829 18.7197 20.9697C18.579 21.1103 18.5 21.3011 18.5 21.5V23C18.5 23.1989 18.579 23.3897 18.7197 23.5303C18.8603 23.671 19.0511 23.75 19.25 23.75C20.4435 23.75 21.5881 23.2759 22.432 22.432C23.2759 21.5881 23.75 20.4435 23.75 19.25V11.75C23.75 11.3522 23.592 10.9706 23.3107 10.6893C23.0294 10.408 22.6478 10.25 22.25 10.25H20Z" stroke="#4B5563" stroke-width="2" stroke-linecap="round" stroke-linejoin="round"/>
<path d="M11.75 10.25C11.3522 10.25 10.9706 10.408 10.6893 10.6893C10.408 10.9706 10.25 11.3522 10.25 11.75V16.25C10.25 16.6478 10.408 17.0294 10.6893 17.3107C10.9706 17.592 11.3522 17.75 11.75 17.75C11.9489 17.75 12.1397 17.829 12.2803 17.9697C12.421 18.1103 12.5 18.3011 12.5 18.5V19.25C12.5 19.6478 12.342 20.0294 12.0607 20.3107C11.7794 20.592 11.3978 20.75 11 20.75C10.8011 20.75 10.6103 20.829 10.4697 20.9697C10.329 21.1103 10.25 21.3011 10.25 21.5V23C10.25 23.1989 10.329 23.3897 10.4697 23.5303C10.6103 23.671 10.8011 23.75 11 23.75C12.1935 23.75 13.3381 23.2759 14.182 22.432C15.0259 21.5881 15.5 20.4435 15.5 19.25V11.75C15.5 11.3522 15.342 10.9706 15.0607 10.6893C14.7794 10.408 14.3978 10.25 14 10.25H11.75Z" stroke="#4B5563" stroke-width="2" stroke-linecap="round" stroke-linejoin="round"/>
</g>
<defs>
<filter id="filter0_d_13_117" x="-2" y="-1" width="38" height="38" filterUnits="userSpaceOnUse" color-interpolation-filters="sRGB">
<feFlood flood-opacity="0" result="BackgroundImageFix"/>
<feColorMatrix in="SourceAlpha" type="matrix" values="0 0 0 0 0 0 0 0 0 0 0 0 0 0 0 0 0 0 127 0" result="hardAlpha"/>
<feOffset dy="1"/>
<feGaussianBlur stdDeviation="1"/>
<feColorMatrix type="matrix" values="0 0 0 0 0 0 0 0 0 0 0 0 0 0 0 0 0 0 0.05 0"/>
<feBlend mode="normal" in2="BackgroundImageFix" result="effect1_dropShadow_13_117"/>
<feBlend mode="normal" in="SourceGraphic" in2="effect1_dropShadow_13_117" result="shape"/>
</filter>
</defs>
</svg>
