<svg width="44" height="44" viewBox="0 0 44 44" fill="none" xmlns="http://www.w3.org/2000/svg">
<rect width="44" height="44" rx="12" fill="#2B3139"/>
<path d="M22.22 12H21.78C21.2496 12 20.7409 12.2107 20.3658 12.5858C19.9907 12.9609 19.78 13.4696 19.78 14V14.18C19.7796 14.5307 19.6871 14.8752 19.5115 15.1788C19.336 15.4825 19.0837 15.7346 18.78 15.91L18.35 16.16C18.046 16.3355 17.7011 16.4279 17.35 16.4279C16.9989 16.4279 16.654 16.3355 16.35 16.16L16.2 16.08C15.7411 15.8153 15.1958 15.7434 14.684 15.8803C14.1722 16.0172 13.7356 16.3515 13.47 16.81L13.25 17.19C12.9853 17.6489 12.9134 18.1942 13.0503 18.706C13.1872 19.2178 13.5215 19.6544 13.98 19.92L14.13 20.02C14.4323 20.1945 14.6836 20.4451 14.8591 20.7468C15.0345 21.0486 15.1279 21.391 15.13 21.74V22.25C15.1314 22.6024 15.0397 22.949 14.864 23.2545C14.6884 23.5601 14.4352 23.8138 14.13 23.99L13.98 24.08C13.5215 24.3456 13.1872 24.7822 13.0503 25.294C12.9134 25.8058 12.9853 26.3511 13.25 26.81L13.47 27.19C13.7356 27.6485 14.1722 27.9828 14.684 28.1197C15.1958 28.2566 15.7411 28.1847 16.2 27.92L16.35 27.84C16.654 27.6645 16.9989 27.5721 17.35 27.5721C17.7011 27.5721 18.046 27.6645 18.35 27.84L18.78 28.09C19.0837 28.2654 19.336 28.5175 19.5115 28.8212C19.6871 29.1248 19.7796 29.4693 19.78 29.82V30C19.78 30.5304 19.9907 31.0391 20.3658 31.4142C20.7409 31.7893 21.2496 32 21.78 32H22.22C22.7504 32 23.2591 31.7893 23.6342 31.4142C24.0093 31.0391 24.22 30.5304 24.22 30V29.82C24.2204 29.4693 24.3129 29.1248 24.4885 28.8212C24.664 28.5175 24.9163 28.2654 25.22 28.09L25.65 27.84C25.954 27.6645 26.2989 27.5721 26.65 27.5721C27.0011 27.5721 27.346 27.6645 27.65 27.84L27.8 27.92C28.2589 28.1847 28.8042 28.2566 29.316 28.1197C29.8278 27.9828 30.2645 27.6485 30.53 27.19L30.75 26.8C31.0147 26.3411 31.0866 25.7958 30.9497 25.284C30.8128 24.7722 30.4785 24.3356 30.02 24.07L29.87 23.99C29.5648 23.8138 29.3116 23.5601 29.136 23.2545C28.9604 22.949 28.8686 22.6024 28.87 22.25V21.75C28.8686 21.3976 28.9604 21.051 29.136 20.7455C29.3116 20.4399 29.5648 20.1862 29.87 20.01L30.02 19.92C30.4785 19.6544 30.8128 19.2178 30.9497 18.706C31.0866 18.1942 31.0147 17.6489 30.75 17.19L30.53 16.81C30.2645 16.3515 29.8278 16.0172 29.316 15.8803C28.8042 15.7434 28.2589 15.8153 27.8 16.08L27.65 16.16C27.346 16.3355 27.0011 16.4279 26.65 16.4279C26.2989 16.4279 25.954 16.3355 25.65 16.16L25.22 15.91C24.9163 15.7346 24.664 15.4825 24.4885 15.1788C24.3129 14.8752 24.2204 14.5307 24.22 14.18V14C24.22 13.4696 24.0093 12.9609 23.6342 12.5858C23.2591 12.2107 22.7504 12 22.22 12Z" stroke="white" stroke-width="2" stroke-linecap="round" stroke-linejoin="round"/>
<path d="M22 25C23.6569 25 25 23.6569 25 22C25 20.3431 23.6569 19 22 19C20.3431 19 19 20.3431 19 22C19 23.6569 20.3431 25 22 25Z" stroke="white" stroke-width="2" stroke-linecap="round" stroke-linejoin="round"/>
</svg>
